<?xml version="1.0" encoding="utf-8"?>
<!-- Generator: Adobe Illustrator 22.1.0, SVG Export Plug-In . SVG Version: 6.00 Build 0)  -->
<svg version="1.1" id="logo_3" xmlns="http://www.w3.org/2000/svg" xmlns:xlink="http://www.w3.org/1999/xlink" x="0px" y="0px"
	 width="900px" height="100px" viewBox="0 0 900 100" style="enable-background:new 0 0 900 100;" xml:space="preserve">
<style type="text/css">
	.st0{fill:#FFFFFF;}
</style>
<path class="st0" d="M217.3,60.1c-0.3,6.5-2.1,11.4-5.5,14.7c-3.4,3.3-8.1,5-14.2,5c-6.4,0-11.3-2.1-14.8-6.3
	c-3.4-4.2-5.1-10.2-5.1-18.1v-9.5c0-7.8,1.8-13.8,5.3-18c3.5-4.2,8.4-6.3,14.7-6.3c6.2,0,10.9,1.7,14.1,5.2c3.2,3.5,5,8.4,5.5,14.9
	h-11.5c-0.1-4-0.7-6.8-1.9-8.3c-1.1-1.5-3.2-2.3-6.2-2.3c-3.1,0-5.2,1.1-6.5,3.2c-1.3,2.1-1.9,5.7-2,10.6v10.7
	c0,5.6,0.6,9.5,1.9,11.6s3.4,3.2,6.5,3.2c3,0,5.1-0.7,6.2-2.2c1.1-1.5,1.8-4.1,1.9-8H217.3z"/>
<path class="st0" d="M264.3,55.8c0,7.6-1.8,13.5-5.4,17.7c-3.6,4.2-8.6,6.3-15,6.3c-6.4,0-11.4-2.1-15-6.3c-3.6-4.2-5.5-10-5.5-17.5
	v-9.7c0-7.8,1.8-13.9,5.4-18.3c3.6-4.4,8.6-6.6,15-6.6c6.3,0,11.3,2.1,14.9,6.4c3.6,4.3,5.5,10.3,5.5,18.1V55.8z M252.8,46.2
	c0-5.1-0.7-8.9-2.2-11.4c-1.5-2.5-3.7-3.7-6.8-3.7c-3,0-5.3,1.2-6.7,3.6c-1.5,2.4-2.2,6.1-2.3,11v10.1c0,5,0.7,8.6,2.2,11
	c1.5,2.4,3.8,3.5,6.9,3.5c3,0,5.2-1.1,6.7-3.4s2.2-5.9,2.2-10.7V46.2z"/>
<path class="st0" d="M287.5,22.3l10.7,41l10.7-41h15V79h-11.5V63.7l1.1-23.7L302,79h-7.8l-11.3-39l1.1,23.7V79h-11.5V22.3H287.5z"/>
<path class="st0" d="M344.5,59.1v20H333V22.3h19.3c5.6,0,10.1,1.7,13.4,5.2c3.3,3.5,5,8,5,13.6c0,5.6-1.7,10-4.9,13.2
	c-3.3,3.2-7.9,4.8-13.7,4.8H344.5z M344.5,49.5h7.9c2.2,0,3.9-0.7,5.1-2.1c1.2-1.4,1.8-3.5,1.8-6.2c0-2.8-0.6-5.1-1.8-6.8
	c-1.2-1.7-2.9-2.5-4.9-2.6h-8V49.5z"/>
<path class="st0" d="M415.2,31.8h-14V79h-11.5V31.8h-13.8v-9.5h39.3V31.8z"/>
<path class="st0" d="M451.1,54.5h-17.8v15h21.1V79h-32.6V22.3h32.5v9.5h-21v13.4h17.8V54.5z"/>
<path class="st0" d="M484.9,64.1c0-2.3-0.6-4.1-1.8-5.2c-1.2-1.2-3.3-2.4-6.5-3.7c-5.7-2.2-9.8-4.7-12.3-7.6
	c-2.5-2.9-3.7-6.3-3.7-10.3c0-4.8,1.7-8.6,5.1-11.5c3.4-2.9,7.7-4.3,12.9-4.3c3.5,0,6.6,0.7,9.3,2.2c2.7,1.5,4.8,3.5,6.3,6.2
	c1.5,2.7,2.2,5.7,2.2,9.1H485c0-2.7-0.6-4.7-1.7-6.1c-1.1-1.4-2.8-2.1-4.9-2.1c-2,0-3.6,0.6-4.7,1.8c-1.1,1.2-1.7,2.8-1.7,4.8
	c0,1.6,0.6,3,1.9,4.2c1.2,1.3,3.5,2.6,6.6,3.9c5.5,2,9.6,4.5,12.1,7.4c2.5,2.9,3.8,6.6,3.8,11.1c0,4.9-1.6,8.8-4.7,11.6
	c-3.1,2.8-7.4,4.2-12.8,4.2c-3.7,0-7-0.8-10-2.3c-3-1.5-5.4-3.7-7.1-6.5c-1.7-2.8-2.6-6.1-2.6-9.9h11.5c0,3.3,0.6,5.7,1.9,7.1
	c1.3,1.5,3.4,2.2,6.2,2.2C482.9,70.5,484.9,68.4,484.9,64.1z"/>
<path class="st0" d="M646.9,72.3l4.1-0.6l17.3-49.3h11.6L697,71.7l4.1,0.6v6.8h-19.3v-6.8l3.9-0.7l-2.5-7.8h-18.4l-2.5,7.8l3.9,0.7
	v6.8h-19.3V72.3z M667.5,55.4h13l-6.4-20h-0.2L667.5,55.4z"/>
<path class="st0" d="M751.5,72.8c-1.8,1.8-4.5,3.5-8.1,4.9c-3.5,1.5-8,2.2-13.4,2.2c-7.7,0-13.9-2.6-18.7-7.7
	c-4.8-5.1-7.2-11.8-7.2-20v-1.9c0-8.5,2.4-15.4,7.1-20.7c4.7-5.3,10.9-8,18.6-8c4.4,0,8.5,0.7,12.2,2.1c3.7,1.4,6.7,3.3,9.2,5.7
	v11.4h-8.4l-1.6-7.6c-1-0.9-2.4-1.6-4.1-2.1c-1.7-0.5-3.7-0.8-5.9-0.8c-5,0-8.8,1.8-11.6,5.5c-2.8,3.7-4.1,8.5-4.1,14.4v2
	c0,5.8,1.3,10.4,4.1,13.8c2.7,3.4,6.6,5.2,11.7,5.2c2.3,0,4.1-0.2,5.6-0.6c1.4-0.4,2.5-0.8,3.3-1.4v-9.6L732,59v-8h19.5V72.8z"/>
<path class="st0" d="M784.6,22.4c6.4,0,11.5,1.5,15.2,4.4c3.7,2.9,5.5,7,5.5,12.2c0,2.9-0.8,5.3-2.3,7.4s-3.8,3.8-6.7,5.1
	c3.3,1,5.8,2.6,7.2,4.9c1.5,2.3,2.2,5.1,2.2,8.6v2.9c0,1.2,0.2,2.2,0.7,2.9c0.5,0.7,1.3,1.1,2.5,1.2l1.4,0.2v6.9h-5.9
	c-3.7,0-6.3-1-7.8-3c-1.5-2-2.3-4.6-2.3-7.8v-3.2c0-2.8-0.7-4.9-2.2-6.5c-1.5-1.6-3.5-2.4-6.2-2.5h-9.3v15l6.1,1.2v6.8h-23.5v-6.8
	l6-1.2V30.4l-6-1.2v-6.9h6H784.6z M776.6,47.4h7.9c3.2,0,5.5-0.7,7.1-2c1.6-1.3,2.4-3.3,2.4-5.8c0-2.5-0.8-4.6-2.4-6.1
	c-1.6-1.5-3.9-2.3-7-2.3h-8.1V47.4z"/>
<path class="st0" d="M816,29.2v-6.9h23.5v6.9l-6.1,1.2v40.7l6.1,1.2v6.8H816v-6.8l6.1-1.2V30.4L816,29.2z"/>
<path class="st0" d="M888.9,40.5h-8.5l-1.5-7.8c-1-0.6-2.4-1.2-4.3-1.6c-1.9-0.5-3.9-0.7-6-0.7c-3.1,0-5.5,0.7-7.2,2
	c-1.7,1.3-2.6,3-2.6,5.1c0,1.9,0.9,3.5,2.7,4.7c1.8,1.2,4.8,2.5,9.2,3.9c6.3,1.7,11,4,14.2,6.9c3.2,2.9,4.8,6.6,4.8,11.3
	c0,4.9-1.9,8.7-5.8,11.5c-3.8,2.8-8.9,4.2-15.2,4.2c-4.5,0-8.6-0.7-12.2-2.1c-3.6-1.4-6.6-3.4-9.1-5.9V60h8.8l1.2,8.1
	c1.1,0.9,2.7,1.7,4.7,2.3c2,0.6,4.1,0.9,6.6,0.9c3.1,0,5.5-0.6,7.1-1.9c1.6-1.3,2.4-3,2.4-5.1c0-2.2-0.8-3.9-2.3-5.3
	c-1.5-1.3-4.3-2.6-8.1-3.7c-6.7-1.9-11.8-4.3-15.3-6.9c-3.5-2.7-5.2-6.3-5.2-11c0-4.6,1.9-8.4,5.8-11.3c3.9-2.9,8.8-4.4,14.7-4.5
	c4.4,0,8.3,0.7,11.9,2c3.6,1.3,6.6,3.1,9,5.3V40.5z"/>
<path class="st0" d="M31.1,56.4c-0.5,1.1-1,2.4-1.6,3.9c-0.6,1.5-1.3,3.1-2,4.8c-0.7,1.7-1.5,3.3-2.2,5c-0.8,1.6-1.6,3.1-2.5,4.4
	c-0.9,1.3-1.8,2.3-2.7,3.1c-0.9,0.8-1.9,1.2-2.8,1.2c-0.8,0-1.5-0.1-2-0.4c-0.5-0.2-0.9-0.6-1.2-0.9c-0.3-0.4-0.5-0.8-0.6-1.3
	c-0.1-0.5-0.2-0.9-0.2-1.3c0-0.6,0.1-1.3,0.3-1.9c0.2-0.7,0.4-1.3,0.7-1.8l15-27.5c0.7-1.1,1.3-2,1.9-2.7c0.6-0.7,1.1-1.1,1.6-1.4
	s1-0.5,1.3-0.6c0.4-0.1,0.7-0.1,1-0.1c0.5,0,0.9,0.2,1.3,0.5c0.4,0.3,0.6,0.9,0.6,1.8c0,0.8-0.2,2-0.7,3.4c-0.4,1.5-1.3,3.3-2.5,5.6
	c2-0.2,4-0.5,6-1c2-0.5,3.8-1.3,5.3-2.2c1.6-0.9,2.8-2.1,3.8-3.4c1-1.3,1.4-2.9,1.4-4.7c0-1.6-0.3-3.1-0.8-4.5
	c-0.5-1.4-1.3-2.7-2.2-3.7c-1-1.1-2.2-1.9-3.6-2.6c-1.4-0.6-3.1-1-5-1c-2.6,0-4.7,0.2-6.6,0.7c-1.8,0.5-3.4,1.1-4.7,1.9
	c-1.3,0.8-2.4,1.7-3.3,2.7c-0.9,1-1.6,2-2.3,3.1c-0.6,1-1.2,2.1-1.7,3.1c-0.5,1-1,1.9-1.5,2.7c-0.5,0.8-1.1,1.4-1.8,1.9
	c-0.7,0.5-1.5,0.7-2.5,0.7c-1.3,0-2.2-0.3-2.8-1c-0.6-0.7-0.9-1.6-0.9-2.8c0-1.2,0.3-2.5,1-3.9c0.7-1.4,1.6-2.8,2.8-4.3
	c1.2-1.4,2.6-2.8,4.4-4.1c1.7-1.3,3.6-2.5,5.8-3.5c2.1-1,4.5-1.8,7-2.4c2.5-0.6,5.2-0.9,7.9-0.9c2.6,0,5.1,0.4,7.5,1.1
	c2.4,0.7,4.5,1.9,6.4,3.3c1.8,1.5,3.3,3.3,4.4,5.6c1.1,2.2,1.7,4.8,1.7,7.8c0,2.7-0.7,5.2-2,7.4c-1.3,2.2-3.1,4.1-5.3,5.6
	s-4.8,2.7-7.7,3.5c-2.9,0.8-6,1.2-9.2,1.2c-0.7,0-1.4,0-2.1,0C32.4,56.5,31.7,56.5,31.1,56.4z"/>
<path class="st0" d="M69.4,48.9c2.2,0,3.8,0.5,4.8,1.6c1.1,1,1.6,2.5,1.6,4.3c0,1.1-0.3,2.2-0.9,3.4c-0.6,1.2-1.6,2.4-3,3.7
	c-1.4,1.2-3.3,2.5-5.6,3.8c-2.4,1.3-5.3,2.6-8.8,3.9c0.1,0.8,0.5,1.3,1.2,1.8c0.7,0.4,1.6,0.6,2.7,0.6c1.2,0,2.5-0.2,3.8-0.5
	c1.4-0.4,2.7-0.8,4.1-1.3c1.3-0.5,2.6-1.1,3.9-1.8c1.3-0.6,2.4-1.2,3.5-1.8c1-0.6,1.9-1.1,2.6-1.5c0.7-0.4,1.2-0.7,1.4-0.8
	c0.2-0.2,0.4-0.2,0.6-0.3c0.2,0,0.4,0,0.5,0c0.3,0,0.6,0.1,0.8,0.2c0.2,0.1,0.4,0.3,0.5,0.5c0.1,0.2,0.2,0.4,0.3,0.6
	c0.1,0.2,0.1,0.4,0.1,0.6c0,0.2,0,0.5-0.1,0.8c-0.1,0.3-0.2,0.7-0.6,1.1c-0.1,0.1-0.6,0.5-1.3,1.1c-0.7,0.6-1.7,1.3-2.9,2
	s-2.5,1.6-4.1,2.5c-1.5,0.9-3.2,1.7-4.9,2.4c-1.7,0.7-3.5,1.3-5.4,1.8c-1.9,0.5-3.7,0.7-5.5,0.7c-1.6,0-2.9-0.3-4.2-0.9
	S52.4,76,51.5,75c-0.8-1-1.5-2.2-1.9-3.5c-0.4-1.3-0.7-2.7-0.7-4.2c0-1.1,0.2-2.3,0.7-3.7c0.4-1.3,1.1-2.7,1.9-4
	c0.8-1.4,1.9-2.7,3.1-4s2.6-2.4,4.1-3.4c1.5-1,3.2-1.8,5-2.4C65.4,49.2,67.4,48.9,69.4,48.9z M68,54.3c-0.1,0-0.2,0-0.4,0
	c-0.1,0-0.2,0-0.4,0c-1,0-1.9,0.2-2.8,0.6c-0.9,0.4-1.6,0.9-2.4,1.5c-0.7,0.6-1.4,1.4-1.9,2.2c-0.6,0.8-1.1,1.6-1.5,2.4
	c-0.4,0.8-0.8,1.6-1.1,2.3c-0.3,0.7-0.5,1.3-0.7,1.8c0.9-0.5,1.9-1,2.8-1.6c1-0.6,1.9-1.2,2.8-1.7s1.6-1,2.2-1.5
	c0.6-0.4,1.1-0.7,1.3-0.9c1.2-0.7,2-1.4,2.4-2.1c0.4-0.6,0.7-1.2,0.7-1.7c0-0.4-0.1-0.7-0.4-0.9C68.6,54.5,68.3,54.3,68,54.3z"/>
<path class="st0" d="M91,55.6c-1,1.9-1.9,3.7-2.7,5.5c-0.9,1.8-1.7,3.4-2.4,4.9c-0.3,0.6-0.6,1.3-0.9,2.2c-0.3,0.8-0.4,1.5-0.4,2.2
	c0,0.4,0.1,0.7,0.3,0.9c0.2,0.2,0.4,0.3,0.8,0.3c0.5,0,1.2-0.2,2.1-0.5c0.8-0.3,1.7-0.8,2.7-1.3c1-0.5,2-1.1,3-1.8
	c1.1-0.7,2.1-1.4,3.1-2.1c1-0.7,2-1.5,2.9-2.2c0.9-0.7,1.8-1.4,2.5-2.1c0.4-0.3,0.8-0.4,1.2-0.4c0.4,0,0.8,0.2,1.1,0.6
	c0.3,0.4,0.4,0.9,0.4,1.5c0,0.6-0.1,1.2-0.4,1.8c-0.3,0.6-0.8,1.2-1.6,1.8c-1.7,1.5-3.4,3-5.1,4.4c-1.7,1.4-3.5,2.6-5.2,3.7
	c-1.7,1.1-3.4,1.9-5.1,2.5c-1.7,0.6-3.3,0.9-4.8,0.9c-1,0-1.9-0.1-2.6-0.4s-1.3-0.7-1.7-1.1c-0.4-0.5-0.7-1-0.9-1.7
	C77.1,74.5,77,73.8,77,73c0-1.3,0.2-2.7,0.7-4.1c0.4-1.4,0.9-2.7,1.5-3.8c0.8-1.6,1.6-3.2,2.3-4.8c0.8-1.6,1.5-3.1,2.2-4.6H82
	c-1.5,0-2.5-0.2-3-0.7s-0.8-1-0.8-1.6c0-0.3,0.1-0.6,0.3-1c0.2-0.4,0.4-0.7,0.7-1.1c0.3-0.3,0.7-0.6,1.2-0.8s1-0.4,1.6-0.4h4.2
	l8.2-16.4c0.5-1,1.2-1.7,1.9-2.1c0.8-0.4,1.6-0.6,2.4-0.6c0.8,0,1.5,0.2,2.1,0.6c0.7,0.4,1,1.1,1,2.1c0,0.5-0.1,1-0.3,1.5
	c-0.2,0.5-0.5,1.1-0.9,1.8c-0.2,0.4-0.5,1-0.9,1.6c-0.3,0.6-0.7,1.3-1.1,2c-0.4,0.7-0.8,1.4-1.2,2.2c-0.4,0.8-0.8,1.5-1.2,2.2
	c-0.9,1.7-1.8,3.4-2.8,5.3h12.7c0.6,0,1.2,0,1.7,0.1c0.5,0.1,1,0.2,1.3,0.4c0.4,0.2,0.7,0.5,0.9,0.8c0.2,0.3,0.3,0.8,0.3,1.4
	c0,0.3,0,0.6-0.1,0.9c-0.1,0.3-0.3,0.5-0.5,0.8c-0.2,0.2-0.6,0.4-1,0.6s-1,0.3-1.7,0.3L91,55.6z"/>
<path class="st0" d="M105.1,52.3c0.4-0.7,1-1.3,1.5-1.6c0.6-0.3,1.2-0.5,1.8-0.5c1,0,1.8,0.3,2.6,1c0.7,0.6,1.1,1.5,1.1,2.4
	c0,0.2-0.1,0.5-0.1,0.7s-0.1,0.5-0.3,0.7c-0.4,0.7-0.7,1.3-0.9,1.7s-0.4,0.9-0.6,1.3c-0.2,0.4-0.4,0.8-0.6,1.2
	c-0.2,0.4-0.4,0.9-0.7,1.4c-0.3,0.7-0.7,1.4-1.1,2.1c-0.4,0.8-0.8,1.6-1.1,2.4c-0.4,0.8-0.7,1.6-0.9,2.4c-0.2,0.8-0.4,1.5-0.4,2.1
	c0,0.7,0.2,1.2,0.5,1.4c0.4,0.2,0.9,0.3,1.5,0.3c0.7,0,1.5-0.2,2.3-0.5c0.8-0.3,1.6-0.7,2.4-1.2c0.8-0.5,1.6-1.1,2.4-1.7
	c0.8-0.6,1.5-1.3,2.2-1.9c0.7-0.7,1.3-1.3,1.9-1.9c0.6-0.6,1.1-1.1,1.5-1.6c0.5-0.5,1-0.7,1.6-0.7c0.5,0,0.9,0.2,1.2,0.6
	c0.3,0.4,0.4,1,0.4,1.6c0,0.6-0.2,1.2-0.4,1.9c-0.3,0.7-0.8,1.3-1.5,1.9c-1.3,1.4-2.7,2.7-4.1,3.9c-1.4,1.2-2.8,2.3-4.2,3.3
	c-1.4,1-2.9,1.7-4.4,2.3c-1.5,0.6-2.9,0.9-4.4,0.9c-2.1,0-3.8-0.5-5-1.6s-1.8-2.8-1.8-5.1c0-1.2,0.2-2.4,0.5-3.5
	c0.3-1.1,0.7-2.3,1.2-3.3c0.5-1.1,1-2.1,1.5-3.1c0.5-1,1-2,1.3-2.9c0.1-0.3,0.4-0.9,0.7-1.6c0.3-0.7,0.7-1.4,1-2.1
	C104.2,54.2,104.7,53.3,105.1,52.3z M109.4,43.6c0-0.6,0.1-1.2,0.3-1.9c0.2-0.6,0.6-1.2,1-1.7c0.4-0.5,1-1,1.7-1.3
	c0.7-0.3,1.5-0.5,2.4-0.5c1.5,0,2.6,0.3,3.2,0.9c0.6,0.6,0.9,1.3,0.9,2.2c0,0.5-0.1,1-0.3,1.6c-0.2,0.6-0.5,1.2-0.9,1.7
	s-0.9,0.9-1.5,1.3c-0.6,0.3-1.4,0.5-2.2,0.5c-1.6,0-2.7-0.3-3.4-0.8C109.9,45.1,109.5,44.4,109.4,43.6z"/>
<path class="st0" d="M130.4,55.6c-1,1.9-1.9,3.7-2.7,5.5c-0.9,1.8-1.7,3.4-2.4,4.9c-0.3,0.6-0.6,1.3-0.9,2.2
	c-0.3,0.8-0.4,1.5-0.4,2.2c0,0.4,0.1,0.7,0.3,0.9c0.2,0.2,0.4,0.3,0.8,0.3c0.5,0,1.2-0.2,2.1-0.5c0.8-0.3,1.7-0.8,2.7-1.3
	c1-0.5,2-1.1,3-1.8c1.1-0.7,2.1-1.4,3.1-2.1c1-0.7,2-1.5,2.9-2.2c0.9-0.7,1.8-1.4,2.5-2.1c0.4-0.3,0.8-0.4,1.2-0.4
	c0.4,0,0.8,0.2,1.1,0.6c0.3,0.4,0.4,0.9,0.4,1.5c0,0.6-0.1,1.2-0.4,1.8c-0.3,0.6-0.8,1.2-1.6,1.8c-1.7,1.5-3.4,3-5.1,4.4
	c-1.7,1.4-3.5,2.6-5.2,3.7c-1.7,1.1-3.4,1.9-5.1,2.5c-1.7,0.6-3.3,0.9-4.8,0.9c-1,0-1.9-0.1-2.6-0.4s-1.3-0.7-1.7-1.1
	c-0.4-0.5-0.7-1-0.9-1.7c-0.2-0.6-0.3-1.3-0.3-2.1c0-1.3,0.2-2.7,0.7-4.1c0.4-1.4,0.9-2.7,1.5-3.8c0.8-1.6,1.6-3.2,2.3-4.8
	c0.8-1.6,1.5-3.1,2.2-4.6h-1.7c-1.5,0-2.5-0.2-3-0.7s-0.8-1-0.8-1.6c0-0.3,0.1-0.6,0.3-1c0.2-0.4,0.4-0.7,0.7-1.1
	c0.3-0.3,0.7-0.6,1.2-0.8s1-0.4,1.6-0.4h4.2l8.2-16.4c0.5-1,1.2-1.7,1.9-2.1c0.8-0.4,1.6-0.6,2.4-0.6c0.8,0,1.5,0.2,2.1,0.6
	c0.7,0.4,1,1.1,1,2.1c0,0.5-0.1,1-0.3,1.5c-0.2,0.5-0.5,1.1-0.9,1.8c-0.2,0.4-0.5,1-0.9,1.6c-0.3,0.6-0.7,1.3-1.1,2
	c-0.4,0.7-0.8,1.4-1.2,2.2c-0.4,0.8-0.8,1.5-1.2,2.2c-0.9,1.7-1.8,3.4-2.8,5.3h12.7c0.6,0,1.2,0,1.7,0.1c0.5,0.1,1,0.2,1.3,0.4
	c0.4,0.2,0.7,0.5,0.9,0.8c0.2,0.3,0.3,0.8,0.3,1.4c0,0.3,0,0.6-0.1,0.9c-0.1,0.3-0.3,0.5-0.5,0.8c-0.2,0.2-0.6,0.4-1,0.6
	s-1,0.3-1.7,0.3L130.4,55.6z"/>
<path class="st0" d="M150.6,55.3c1.6,0.8,3,1.8,4.3,2.9c1.3,1.1,2.3,2.2,3.2,3.4c0.9,1.2,1.5,2.4,2,3.6c0.5,1.2,0.7,2.4,0.7,3.6
	c0,1.5-0.4,2.8-1.3,4c-0.8,1.2-2,2.2-3.3,3s-2.9,1.4-4.7,1.9s-3.5,0.6-5.3,0.6c-1.4,0-2.7-0.2-3.9-0.4c-1.3-0.3-2.4-0.8-3.5-1.4
	s-2-1.4-2.7-2.4s-1.3-2.1-1.6-3.5c-0.1-0.2-0.1-0.4-0.1-0.5c0-0.7,0.2-1.3,0.7-1.8s1-0.8,1.6-0.8c0.3,0,0.6,0.1,1,0.2
	c0.4,0.1,0.6,0.3,0.8,0.7c0.3,0.6,0.8,1.2,1.4,1.7c0.6,0.5,1.3,0.9,2.1,1.3c0.8,0.4,1.6,0.6,2.4,0.8c0.8,0.2,1.7,0.3,2.5,0.3
	c0.8,0,1.6-0.1,2.4-0.2c0.8-0.2,1.4-0.4,2-0.7c0.6-0.3,1-0.8,1.4-1.3c0.3-0.5,0.5-1.2,0.5-1.9c0-1.3-0.3-2.6-0.9-3.7
	c-0.6-1.1-1.4-2.2-2.3-3.1c-1-1-2-1.8-3.2-2.7s-2.4-1.6-3.6-2.4c-0.1-0.1-0.3-0.3-0.6-0.7c-0.3-0.4-0.4-0.8-0.4-1.2
	c0-0.3,0.1-0.6,0.2-0.7c0.4-0.5,0.9-1.1,1.4-1.7c0.5-0.6,1.1-1.1,1.8-1.6c0.6-0.5,1.3-0.9,2-1.2c0.7-0.3,1.5-0.4,2.3-0.4
	c0.6,0,1.1,0.1,1.6,0.2c0.5,0.2,0.9,0.4,1.3,0.6c0.3,0.2,0.6,0.5,0.8,0.8c0.2,0.3,0.3,0.6,0.3,0.8c0,0.4-0.1,0.7-0.3,1.1
	c-0.2,0.3-0.4,0.7-0.7,1c-0.3,0.3-0.6,0.6-1,0.9C151.3,54.8,151,55.1,150.6,55.3z"/>
<path class="st0" d="M531,59.2v-1.4l1.8-0.3V45.2l-1.8-0.3v-1.4h12v3.8h-1.8l-0.2-2.1h-6.2v5.1h6v1.7h-6v5.6h6.3l0.2-2.1h1.8v3.7
	H531z"/>
<path class="st0" d="M563.7,43.5v1.4l-1.8,0.3v14h-2.1l-7.5-12.1l-0.1,0v10.4l1.8,0.3v1.4h-5.6v-1.4l1.8-0.3V45.2l-1.8-0.3v-1.4h1.8
	h2.1l7.5,12.1l0.1,0V45.2l-1.8-0.3v-1.4h3.9H563.7z"/>
<path class="st0" d="M581,43.5V47h-1.8l-0.2-1.8h-3.5v12.3l1.8,0.3v1.4h-5.6v-1.4l1.8-0.3V45.2H570l-0.2,1.8H568v-3.5H581z"/>
<path class="st0" d="M592.4,43.5c1.7,0,3,0.4,3.9,1.1c0.9,0.8,1.4,1.8,1.4,3.2c0,0.8-0.2,1.4-0.6,2s-1,1-1.8,1.4
	c0.9,0.3,1.5,0.7,1.8,1.4c0.4,0.6,0.6,1.4,0.6,2.3v1.3c0,0.5,0.1,0.8,0.2,1.1s0.3,0.4,0.6,0.4l0.5,0.1v1.4h-1.1
	c-0.8,0-1.4-0.3-1.8-0.9c-0.3-0.6-0.5-1.3-0.5-2.1V55c0-0.9-0.2-1.5-0.7-2.1s-1.2-0.8-2-0.8h-3.4v5.3l1.8,0.3v1.4h-5.6v-1.4l1.8-0.3
	V45.2l-1.8-0.3v-1.4h1.8H592.4z M589.4,50.5h2.8c1.2,0,2-0.2,2.6-0.7s0.8-1.1,0.8-2c0-0.8-0.3-1.5-0.8-2s-1.3-0.7-2.4-0.7h-3V50.5z"
	/>
<path class="st0" d="M603.7,59.2v-1.4l1.8-0.3V45.2l-1.8-0.3v-1.4h12v3.8h-1.8l-0.2-2.1h-6.2v5.1h6v1.7h-6v5.6h6.3l0.2-2.1h1.8v3.7
	H603.7z"/>
<path class="st0" d="M626.1,34.5h-104c-1.4,0-2.5-1.1-2.5-2.5c0-1.4,1.1-2.5,2.5-2.5h104c1.4,0,2.5,1.1,2.5,2.5
	C628.6,33.4,627.5,34.5,626.1,34.5z"/>
<path class="st0" d="M626.1,73h-104c-1.4,0-2.5-1.1-2.5-2.5s1.1-2.5,2.5-2.5h104c1.4,0,2.5,1.1,2.5,2.5S627.5,73,626.1,73z"/>
</svg>
