<?xml version="1.0" encoding="utf-8"?>
<!-- Generator: Adobe Illustrator 22.1.0, SVG Export Plug-In . SVG Version: 6.00 Build 0)  -->
<svg version="1.1" id="Calque_1" xmlns="http://www.w3.org/2000/svg" xmlns:xlink="http://www.w3.org/1999/xlink" x="0px" y="0px"
	 width="500px" height="500px" viewBox="0 0 500 500" style="enable-background:new 0 0 500 500;" xml:space="preserve">
<style type="text/css">
	.st0{fill:#FFFFFF;}
	.st1{fill:#005580;}
	.st2{fill:none;stroke:#FFFFFF;stroke-width:5;stroke-linecap:round;stroke-miterlimit:10;}
</style>
<g id="logo_1">
</g>
<g id="logo_2">
</g>
<g id="logo_3">
	<g>
		<circle class="st0" cx="250" cy="250" r="225"/>
	</g>
	
		<rect x="244.7" y="349.5" transform="matrix(1 -4.999937e-03 4.999937e-03 1 -1.9944 1.2537)" class="st1" width="10" height="100"/>
	
		<rect x="171.2" y="393.5" transform="matrix(9.433900e-02 -0.9955 0.9955 9.433900e-02 -197.568 579.8251)" class="st1" width="97.4" height="10"/>
	
		<rect x="146" y="389.1" transform="matrix(0.1914 -0.9815 0.9815 0.1914 -232.4524 506.0398)" class="st1" width="89.9" height="10"/>
	
		<rect x="124.6" y="382.3" transform="matrix(0.2828 -0.9592 0.9592 0.2828 -254.2281 434.5923)" class="st1" width="77.8" height="10"/>
	
		<rect x="107.2" y="373.7" transform="matrix(0.3672 -0.9302 0.9302 0.3672 -264.8703 368.1817)" class="st1" width="61.8" height="10"/>
	
		<rect x="93.6" y="364.2" transform="matrix(0.4444 -0.8958 0.8958 0.4444 -266.8037 308.1372)" class="st1" width="42.8" height="10"/>
	
		<rect x="274.6" y="349.7" transform="matrix(0.9945 -0.1046 0.1046 0.9945 -40.1419 31.4258)" class="st1" width="10" height="97.5"/>
	
		<rect x="303.5" y="349.1" transform="matrix(0.9796 -0.2008 0.2008 0.9796 -72.8621 69.9863)" class="st1" width="10" height="90.1"/>
	
		<rect x="330.9" y="348.3" transform="matrix(0.9566 -0.2916 0.2916 0.9566 -98.3583 114.7697)" class="st1" width="10" height="78.2"/>
	
		<rect x="356.2" y="347.7" transform="matrix(0.9269 -0.3753 0.3753 0.9269 -115.7904 163.2366)" class="st1" width="10" height="62.4"/>
	
		<rect x="379.3" y="347.7" transform="matrix(0.8921 -0.4518 0.4518 0.8921 -125.4154 213.4776)" class="st1" width="10" height="43.4"/>
	<path class="st1" d="M250,55c52.1,0,101.1,20.3,137.9,57.1S445,197.9,445,250s-20.3,101.1-57.1,137.9S302.1,445,250,445
		s-101.1-20.3-137.9-57.1S55,302.1,55,250s20.3-101.1,57.1-137.9S197.9,55,250,55 M250,25C125.7,25,25,125.7,25,250
		s100.7,225,225,225s225-100.7,225-225S374.3,25,250,25L250,25z"/>
	<path class="st0" d="M250,46c27.5,0,54.3,5.4,79.4,16c24.3,10.3,46.1,25,64.8,43.7s33.4,40.6,43.7,64.8c10.6,25.1,16,51.9,16,79.4
		s-5.4,54.3-16,79.4c-10.3,24.3-25,46.1-43.7,64.8c-18.7,18.7-40.6,33.4-64.8,43.7c-25.1,10.6-51.9,16-79.4,16s-54.3-5.4-79.4-16
		c-24.3-10.3-46.1-25-64.8-43.7C87,375.5,72.3,353.7,62,329.4c-10.6-25.1-16-51.9-16-79.4s5.4-54.3,16-79.4
		c10.3-24.3,25-46.1,43.7-64.8s40.6-33.4,64.8-43.7C195.7,51.4,222.5,46,250,46 M250,40C134,40,40,134,40,250s94,210,210,210
		s210-94,210-210S366,40,250,40L250,40z"/>
	<path d="M121.1,234.8c-0.3,7-2.3,12.2-5.9,15.8s-8.7,5.4-15.3,5.4c-6.9,0-12.2-2.3-15.9-6.8c-3.7-4.5-5.5-11-5.5-19.5v-10.3
		c0-8.4,1.9-14.9,5.7-19.4c3.8-4.5,9.1-6.8,15.9-6.8c6.7,0,11.7,1.9,15.2,5.6c3.5,3.7,5.4,9.1,5.9,16h-12.4c-0.1-4.3-0.8-7.3-2-8.9
		s-3.5-2.5-6.7-2.5c-3.3,0-5.6,1.2-7,3.5s-2.1,6.1-2.2,11.4v11.5c0,6.1,0.7,10.2,2,12.5c1.4,2.3,3.7,3.4,7,3.4
		c3.2,0,5.5-0.8,6.7-2.4c1.2-1.6,1.9-4.4,2.1-8.6h12.4V234.8z"/>
	<path d="M171.8,230.1c0,8.2-1.9,14.6-5.8,19.1c-3.9,4.5-9.3,6.8-16.1,6.8c-6.9,0-12.2-2.2-16.2-6.7c-3.9-4.5-5.9-10.8-6-18.9v-10.5
		c0-8.4,1.9-15,5.8-19.7c3.9-4.7,9.3-7.1,16.2-7.1c6.8,0,12.2,2.3,16.1,6.9c3.9,4.6,5.9,11.1,6,19.5V230.1z M159.4,219.9
		c0-5.5-0.8-9.6-2.4-12.3c-1.6-2.7-4-4-7.3-4s-5.7,1.3-7.3,3.9c-1.6,2.6-2.4,6.5-2.4,11.8v10.9c0,5.3,0.8,9.3,2.4,11.8
		c1.6,2.5,4.1,3.8,7.4,3.8c3.2,0,5.6-1.2,7.2-3.7s2.4-6.3,2.4-11.5L159.4,219.9L159.4,219.9z"/>
	<path d="M196.8,194l11.5,44.2l11.5-44.2H236v61.1h-12.4v-16.5l1.1-25.5l-12.2,42h-8.4l-12.2-42l1.1,25.5v16.5h-12.3V194H196.8z"/>
	<path d="M258.2,233.7v21.5h-12.3V194h20.8c6,0,10.9,1.9,14.5,5.6c3.6,3.8,5.4,8.6,5.4,14.6s-1.8,10.7-5.3,14.2
		c-3.6,3.5-8.5,5.2-14.8,5.2L258.2,233.7L258.2,233.7z M258.2,223.4h8.5c2.4,0,4.2-0.8,5.5-2.3s1.9-3.8,1.9-6.7c0-3.1-0.7-5.5-2-7.3
		s-3.1-2.7-5.3-2.8h-8.6V223.4z"/>
	<path d="M334.4,204.3h-15.1v50.9h-12.4v-50.9H292V194h42.4V204.3z"/>
	<path d="M373.1,228.7h-19.2v16.2h22.8v10.2h-35.1V194h35v10.3h-22.7v14.4h19.2L373.1,228.7L373.1,228.7z"/>
	<path d="M409.5,239.1c0-2.5-0.6-4.4-1.9-5.6c-1.3-1.3-3.6-2.6-7-4c-6.1-2.3-10.5-5-13.2-8.2c-2.7-3.1-4-6.8-4-11.1
		c0-5.2,1.8-9.3,5.5-12.4c3.7-3.1,8.3-4.7,13.9-4.7c3.8,0,7.1,0.8,10,2.4c2.9,1.6,5.2,3.8,6.8,6.7c1.6,2.9,2.4,6.2,2.4,9.8h-12.3
		c0-2.9-0.6-5-1.8-6.5c-1.2-1.5-3-2.2-5.3-2.2c-2.2,0-3.8,0.6-5,1.9c-1.2,1.3-1.8,3-1.8,5.1c0,1.7,0.7,3.2,2,4.6
		c1.3,1.4,3.7,2.8,7.1,4.2c6,2.2,10.3,4.8,13,7.9c2.7,3.1,4.1,7.1,4.1,12c0,5.3-1.7,9.5-5.1,12.5s-8,4.5-13.8,4.5
		c-3.9,0-7.5-0.8-10.8-2.4c-3.2-1.6-5.8-3.9-7.6-7c-1.8-3-2.8-6.6-2.8-10.7h12.4c0,3.5,0.7,6.1,2.1,7.7c1.4,1.6,3.6,2.4,6.7,2.4
		C407.4,246,409.5,243.7,409.5,239.1z"/>
	<g>
		<g>
			<polygon class="st1" points="490,291 404,291 404,371 490,371 465,331 			"/>
		</g>
		<g>
			<polygon class="st1" points="10,371 96,371 96,291 10,291 35,331 			"/>
		</g>
		<g>
			<path class="st0" d="M422,274v80l-18,10v-10H96v10l-18-10v-80H422 M427,269h-5H78h-5v5v80v2.9l2.6,1.4l18,10l7.4,4.1V364v-5h298
				v5v8.5l7.4-4.1l18-10l2.6-1.4v-3v-80V269L427,269z"/>
		</g>
		<g>
			<rect x="78" y="274" class="st1" width="344" height="80"/>
		</g>
	</g>
	<path class="st0" d="M215.4,330.9l3-0.4l13-37.1h8.8l12.9,37.1l3,0.4v5.1h-14.5v-5.1l3-0.5l-1.9-5.9h-13.8l-1.9,5.9l3,0.5v5.1
		h-14.5L215.4,330.9L215.4,330.9z M230.9,318.2h9.8l-4.8-15h-0.2L230.9,318.2z"/>
	<path class="st0" d="M294,331.3c-1.4,1.4-3.4,2.6-6.1,3.7s-6,1.7-10.1,1.7c-5.8,0-10.4-1.9-14.1-5.8s-5.4-8.9-5.4-15v-1.5
		c0-6.4,1.8-11.6,5.3-15.6s8.2-6,14-6c3.3,0,6.4,0.5,9.2,1.6s5.1,2.5,6.9,4.3v8.6h-6.3l-1.2-5.7c-0.8-0.7-1.8-1.2-3.1-1.6
		s-2.8-0.6-4.4-0.6c-3.7,0-6.6,1.4-8.7,4.1s-3.1,6.4-3.1,10.8v1.5c0,4.3,1,7.8,3,10.4s5,3.9,8.8,3.9c1.7,0,3.1-0.1,4.2-0.4
		s1.9-0.6,2.5-1v-7.2l-6.1-0.5v-6H294V331.3z"/>
	<path class="st0" d="M319,293.3c4.8,0,8.6,1.1,11.4,3.3s4.1,5.3,4.1,9.2c0,2.1-0.6,4-1.7,5.6s-2.8,2.9-5.1,3.8
		c2.5,0.7,4.3,2,5.4,3.7s1.7,3.9,1.7,6.4v2.2c0,0.9,0.2,1.7,0.6,2.2s1,0.8,1.8,0.9l1.1,0.1v5.2h-4.4c-2.8,0-4.8-0.8-5.9-2.3
		s-1.7-3.4-1.7-5.8v-2.4c0-2.1-0.6-3.7-1.7-4.9s-2.7-1.8-4.7-1.9h-7V330l4.6,0.9v5.1h-17.7v-5.1l4.5-0.9v-30.6l-4.5-0.9v-5.2h4.5
		H319z M312.9,312.2h5.9c2.4,0,4.2-0.5,5.4-1.5s1.8-2.5,1.8-4.4s-0.6-3.4-1.8-4.6s-2.9-1.7-5.2-1.7h-6.1L312.9,312.2L312.9,312.2z"
		/>
	<path class="st0" d="M342.5,298.5v-5.2h17.7v5.2l-4.6,0.9V330l4.6,0.9v5.1h-17.7v-5.1l4.6-0.9v-30.6L342.5,298.5z"/>
	<path class="st0" d="M397.4,307H391l-1.1-5.9c-0.7-0.5-1.8-0.9-3.3-1.2s-2.9-0.5-4.5-0.5c-2.3,0-4.2,0.5-5.4,1.5s-1.9,2.3-1.9,3.8
		c0,1.4,0.7,2.6,2,3.6s3.6,1.9,6.9,2.9c4.7,1.3,8.3,3,10.7,5.2s3.6,5,3.6,8.5c0,3.7-1.4,6.5-4.3,8.6s-6.7,3.2-11.4,3.2
		c-3.4,0-6.4-0.5-9.2-1.6s-5-2.6-6.8-4.5v-8.9h6.6l0.9,6.1c0.9,0.7,2,1.3,3.5,1.7s3.1,0.7,4.9,0.7c2.3,0,4.1-0.5,5.3-1.4
		s1.8-2.2,1.8-3.8c0-1.6-0.6-3-1.7-4s-3.2-1.9-6.1-2.8c-5.1-1.5-8.9-3.2-11.5-5.2s-3.9-4.8-3.9-8.3s1.5-6.3,4.4-8.5s6.6-3.3,11-3.4
		c3.3,0,6.3,0.5,9,1.5s5,2.3,6.8,4v8.7H397.4z"/>
	<path d="M200.3,151.9c-0.5,1.1-1,2.4-1.6,3.9s-1.3,3.1-2,4.8s-1.5,3.3-2.2,5c-0.8,1.6-1.6,3.1-2.5,4.4c-0.9,1.3-1.8,2.3-2.7,3.1
		s-1.9,1.2-2.8,1.2c-0.8,0-1.5-0.1-2-0.4c-0.5-0.2-0.9-0.6-1.2-0.9c-0.3-0.4-0.5-0.8-0.6-1.3s-0.2-0.9-0.2-1.3
		c0-0.6,0.1-1.3,0.3-1.9c0.2-0.7,0.4-1.3,0.7-1.8l15-27.5c0.7-1.1,1.3-2,1.9-2.7c0.6-0.7,1.1-1.1,1.6-1.4s1-0.5,1.3-0.6
		c0.4-0.1,0.7-0.1,1-0.1c0.5,0,0.9,0.2,1.3,0.5c0.4,0.3,0.6,0.9,0.6,1.8c0,0.8-0.2,2-0.7,3.4c-0.4,1.5-1.3,3.3-2.5,5.6
		c2-0.2,4-0.5,6-1s3.8-1.3,5.3-2.2c1.6-0.9,2.8-2.1,3.8-3.4c1-1.3,1.4-2.9,1.4-4.7c0-1.6-0.3-3.1-0.8-4.5s-1.3-2.7-2.2-3.8
		c-1-1.1-2.2-1.9-3.6-2.6c-1.4-0.6-3.1-1-5-1c-2.6,0-4.7,0.2-6.6,0.7c-1.8,0.5-3.4,1.1-4.7,1.9s-2.4,1.7-3.3,2.7
		c-0.9,1-1.6,2-2.3,3.1c-0.6,1-1.2,2.1-1.7,3.1s-1,1.9-1.5,2.7s-1.1,1.4-1.8,1.9s-1.5,0.7-2.5,0.7c-1.3,0-2.2-0.3-2.8-1
		s-0.9-1.6-0.9-2.8s0.3-2.5,1-3.9s1.6-2.8,2.8-4.3c1.2-1.4,2.6-2.8,4.4-4.1c1.7-1.3,3.6-2.5,5.8-3.5c2.1-1,4.5-1.8,7-2.4
		s5.2-0.9,7.9-0.9c2.6,0,5.1,0.4,7.5,1.1s4.5,1.9,6.4,3.3c1.8,1.5,3.3,3.3,4.4,5.6c1.1,2.2,1.7,4.8,1.7,7.8c0,2.7-0.7,5.2-2,7.4
		s-3.1,4.1-5.3,5.6s-4.8,2.7-7.7,3.5s-6,1.2-9.2,1.2c-0.7,0-1.4,0-2.1,0C201.6,152,201,152,200.3,151.9z"/>
	<path d="M238.6,144.4c2.2,0,3.8,0.5,4.8,1.6c1.1,1,1.6,2.5,1.6,4.3c0,1.1-0.3,2.2-0.9,3.4c-0.6,1.2-1.6,2.4-3,3.7
		c-1.4,1.2-3.3,2.5-5.6,3.8c-2.4,1.3-5.3,2.6-8.8,3.9c0.1,0.8,0.5,1.3,1.2,1.8c0.7,0.4,1.6,0.6,2.7,0.6c1.2,0,2.5-0.2,3.8-0.5
		s2.7-0.8,4.1-1.3c1.3-0.5,2.6-1.1,3.9-1.8c1.3-0.6,2.4-1.2,3.5-1.8c1-0.6,1.9-1.1,2.6-1.5c0.7-0.4,1.2-0.7,1.4-0.8
		c0.2-0.2,0.4-0.2,0.6-0.3c0.2,0,0.4,0,0.5,0c0.3,0,0.6,0.1,0.8,0.2c0.2,0.1,0.4,0.3,0.5,0.5s0.2,0.4,0.3,0.6
		c0.1,0.2,0.1,0.4,0.1,0.6c0,0.2,0,0.5-0.1,0.8s-0.2,0.7-0.6,1.1c-0.1,0.1-0.6,0.5-1.3,1.1s-1.7,1.3-2.9,2s-2.5,1.6-4.1,2.5
		c-1.5,0.9-3.2,1.7-4.9,2.4s-3.5,1.3-5.4,1.8s-3.7,0.7-5.5,0.7c-1.6,0-2.9-0.3-4.2-0.9s-2.2-1.4-3.1-2.4c-0.8-1-1.5-2.2-1.9-3.5
		s-0.7-2.7-0.7-4.2c0-1.1,0.2-2.3,0.7-3.7c0.4-1.3,1.1-2.7,1.9-4c0.8-1.4,1.9-2.7,3.1-4s2.6-2.4,4.1-3.4s3.2-1.8,5-2.4
		C234.6,144.7,236.6,144.4,238.6,144.4z M237.2,149.8c-0.1,0-0.2,0-0.4,0c-0.1,0-0.2,0-0.4,0c-1,0-1.9,0.2-2.8,0.6s-1.6,0.9-2.4,1.5
		c-0.7,0.6-1.4,1.4-1.9,2.2c-0.6,0.8-1.1,1.6-1.5,2.4c-0.4,0.8-0.8,1.6-1.1,2.3s-0.5,1.3-0.7,1.8c0.9-0.5,1.9-1,2.8-1.6
		c1-0.6,1.9-1.2,2.8-1.7s1.6-1,2.2-1.5c0.6-0.4,1.1-0.7,1.3-0.9c1.2-0.7,2-1.4,2.4-2.1c0.4-0.6,0.7-1.2,0.7-1.7
		c0-0.4-0.1-0.7-0.4-0.9C237.8,150,237.5,149.8,237.2,149.8z"/>
	<path d="M260.2,151.1c-1,1.9-1.9,3.7-2.7,5.5c-0.9,1.8-1.7,3.4-2.4,4.9c-0.3,0.6-0.6,1.3-0.9,2.2c-0.3,0.8-0.4,1.5-0.4,2.2
		c0,0.4,0.1,0.7,0.3,0.9s0.4,0.3,0.8,0.3c0.5,0,1.2-0.2,2.1-0.5c0.8-0.3,1.7-0.8,2.7-1.3s2-1.1,3-1.8c1.1-0.7,2.1-1.4,3.1-2.1
		c1-0.7,2-1.5,2.9-2.2s1.8-1.4,2.5-2.1c0.4-0.3,0.8-0.4,1.2-0.4c0.4,0,0.8,0.2,1.1,0.6c0.3,0.4,0.4,0.9,0.4,1.5s-0.1,1.2-0.4,1.8
		s-0.8,1.2-1.6,1.8c-1.7,1.5-3.4,3-5.1,4.4s-3.5,2.6-5.2,3.7c-1.7,1.1-3.4,1.9-5.1,2.5c-1.7,0.6-3.3,0.9-4.8,0.9
		c-1,0-1.9-0.1-2.6-0.4s-1.3-0.7-1.7-1.1c-0.4-0.5-0.7-1-0.9-1.7c-0.2-0.6-0.3-1.3-0.3-2.1c0-1.3,0.2-2.7,0.7-4.1
		c0.4-1.4,0.9-2.7,1.5-3.8c0.8-1.6,1.6-3.2,2.3-4.8c0.8-1.6,1.5-3.1,2.2-4.6h-1.7c-1.5,0-2.5-0.2-3-0.7s-0.8-1-0.8-1.6
		c0-0.3,0.1-0.6,0.3-1s0.4-0.7,0.7-1.1c0.3-0.3,0.7-0.6,1.2-0.8s1-0.4,1.6-0.4h4.2l8.2-16.4c0.5-1,1.2-1.7,1.9-2.1
		c0.8-0.4,1.6-0.6,2.4-0.6s1.5,0.2,2.1,0.6c0.7,0.4,1,1.1,1,2.1c0,0.5-0.1,1-0.3,1.5c-0.2,0.5-0.5,1.1-0.9,1.8
		c-0.2,0.4-0.5,1-0.9,1.6c-0.3,0.6-0.7,1.3-1.1,2s-0.8,1.4-1.2,2.2c-0.4,0.8-0.8,1.5-1.2,2.2c-0.9,1.7-1.8,3.4-2.8,5.3h12.7
		c0.6,0,1.2,0,1.7,0.1s1,0.2,1.3,0.4c0.4,0.2,0.7,0.5,0.9,0.8c0.2,0.3,0.3,0.8,0.3,1.4c0,0.3,0,0.6-0.1,0.9
		c-0.1,0.3-0.3,0.5-0.5,0.8c-0.2,0.2-0.6,0.4-1,0.6s-1,0.3-1.7,0.3L260.2,151.1z"/>
	<path d="M274.3,147.8c0.4-0.7,1-1.3,1.5-1.6c0.6-0.3,1.2-0.5,1.8-0.5c1,0,1.8,0.3,2.6,1c0.7,0.6,1.1,1.5,1.1,2.4
		c0,0.2-0.1,0.5-0.1,0.7s-0.1,0.5-0.3,0.7c-0.4,0.7-0.7,1.3-0.9,1.7s-0.4,0.9-0.6,1.3c-0.2,0.4-0.4,0.8-0.6,1.2s-0.4,0.9-0.7,1.4
		c-0.3,0.7-0.7,1.4-1.1,2.1c-0.4,0.8-0.8,1.6-1.1,2.4c-0.4,0.8-0.7,1.6-0.9,2.4c-0.2,0.8-0.4,1.5-0.4,2.1c0,0.7,0.2,1.2,0.5,1.4
		c0.4,0.2,0.9,0.3,1.5,0.3c0.7,0,1.5-0.2,2.3-0.5s1.6-0.7,2.4-1.2s1.6-1.1,2.4-1.7c0.8-0.6,1.5-1.3,2.2-1.9c0.7-0.7,1.3-1.3,1.9-1.9
		c0.6-0.6,1.1-1.1,1.5-1.6c0.5-0.5,1-0.7,1.6-0.7c0.5,0,0.9,0.2,1.2,0.6c0.3,0.4,0.4,1,0.4,1.6s-0.2,1.2-0.4,1.9
		c-0.3,0.7-0.8,1.3-1.5,1.9c-1.3,1.4-2.7,2.7-4.1,3.9s-2.8,2.3-4.2,3.3c-1.4,1-2.9,1.7-4.4,2.3s-2.9,0.9-4.4,0.9
		c-2.1,0-3.8-0.5-5-1.6s-1.8-2.8-1.8-5.1c0-1.2,0.2-2.4,0.5-3.5s0.7-2.3,1.2-3.3c0.5-1.1,1-2.1,1.5-3.1s1-2,1.3-2.9
		c0.1-0.3,0.4-0.9,0.7-1.6c0.3-0.7,0.7-1.4,1-2.1C273.4,149.7,273.9,148.8,274.3,147.8z M278.6,139.1c0-0.6,0.1-1.2,0.3-1.9
		c0.2-0.6,0.6-1.2,1-1.7s1-1,1.7-1.3s1.5-0.5,2.4-0.5c1.5,0,2.6,0.3,3.2,0.9c0.6,0.6,0.9,1.3,0.9,2.2c0,0.5-0.1,1-0.3,1.6
		c-0.2,0.6-0.5,1.2-0.9,1.7s-0.9,0.9-1.5,1.3c-0.6,0.3-1.4,0.5-2.2,0.5c-1.6,0-2.7-0.3-3.4-0.8C279.1,140.6,278.7,139.9,278.6,139.1
		z"/>
	<path d="M299.6,151.1c-1,1.9-1.9,3.7-2.7,5.5c-0.9,1.8-1.7,3.4-2.4,4.9c-0.3,0.6-0.6,1.3-0.9,2.2c-0.3,0.8-0.4,1.5-0.4,2.2
		c0,0.4,0.1,0.7,0.3,0.9c0.2,0.2,0.4,0.3,0.8,0.3c0.5,0,1.2-0.2,2.1-0.5c0.8-0.3,1.7-0.8,2.7-1.3s2-1.1,3-1.8
		c1.1-0.7,2.1-1.4,3.1-2.1c1-0.7,2-1.5,2.9-2.2s1.8-1.4,2.5-2.1c0.4-0.3,0.8-0.4,1.2-0.4c0.4,0,0.8,0.2,1.1,0.6
		c0.3,0.4,0.4,0.9,0.4,1.5s-0.1,1.2-0.4,1.8s-0.8,1.2-1.6,1.8c-1.7,1.5-3.4,3-5.1,4.4s-3.5,2.6-5.2,3.7c-1.7,1.1-3.4,1.9-5.1,2.5
		s-3.3,0.9-4.8,0.9c-1,0-1.9-0.1-2.6-0.4s-1.3-0.7-1.7-1.1c-0.4-0.5-0.7-1-0.9-1.7c-0.2-0.6-0.3-1.3-0.3-2.1c0-1.3,0.2-2.7,0.7-4.1
		c0.4-1.4,0.9-2.7,1.5-3.8c0.8-1.6,1.6-3.2,2.3-4.8c0.8-1.6,1.5-3.1,2.2-4.6h-1.7c-1.5,0-2.5-0.2-3-0.7s-0.8-1-0.8-1.6
		c0-0.3,0.1-0.6,0.3-1c0.2-0.4,0.4-0.7,0.7-1.1c0.3-0.3,0.7-0.6,1.2-0.8s1-0.4,1.6-0.4h4.2l8.2-16.4c0.5-1,1.2-1.7,1.9-2.1
		c0.8-0.4,1.6-0.6,2.4-0.6s1.5,0.2,2.1,0.6c0.7,0.4,1,1.1,1,2.1c0,0.5-0.1,1-0.3,1.5c-0.2,0.5-0.5,1.1-0.9,1.8
		c-0.2,0.4-0.5,1-0.9,1.6c-0.3,0.6-0.7,1.3-1.1,2s-0.8,1.4-1.2,2.2c-0.4,0.8-0.8,1.5-1.2,2.2c-0.9,1.7-1.8,3.4-2.8,5.3h12.7
		c0.6,0,1.2,0,1.7,0.1s1,0.2,1.3,0.4c0.4,0.2,0.7,0.5,0.9,0.8c0.2,0.3,0.3,0.8,0.3,1.4c0,0.3,0,0.6-0.1,0.9
		c-0.1,0.3-0.3,0.5-0.5,0.8c-0.2,0.2-0.6,0.4-1,0.6s-1,0.3-1.7,0.3L299.6,151.1z"/>
	<path d="M319.8,150.8c1.6,0.8,3,1.8,4.3,2.9c1.3,1.1,2.3,2.2,3.2,3.4c0.9,1.2,1.5,2.4,2,3.6c0.5,1.2,0.7,2.4,0.7,3.6
		c0,1.5-0.4,2.8-1.3,4c-0.8,1.2-2,2.2-3.3,3s-2.9,1.4-4.7,1.9s-3.5,0.6-5.3,0.6c-1.4,0-2.7-0.2-3.9-0.4c-1.3-0.3-2.4-0.8-3.5-1.4
		s-2-1.4-2.7-2.4s-1.3-2.1-1.6-3.5c-0.1-0.2-0.1-0.4-0.1-0.5c0-0.7,0.2-1.3,0.7-1.8s1-0.8,1.6-0.8c0.3,0,0.6,0.1,1,0.2
		c0.4,0.1,0.6,0.3,0.8,0.7c0.3,0.6,0.8,1.2,1.4,1.7s1.3,0.9,2.1,1.3c0.8,0.4,1.6,0.6,2.4,0.8s1.7,0.3,2.5,0.3s1.6-0.1,2.4-0.2
		c0.8-0.2,1.4-0.4,2-0.7s1-0.8,1.4-1.3c0.3-0.5,0.5-1.2,0.5-1.9c0-1.3-0.3-2.6-0.9-3.7c-0.6-1.1-1.4-2.2-2.3-3.1c-1-1-2-1.8-3.2-2.7
		s-2.4-1.6-3.6-2.4c-0.1-0.1-0.3-0.3-0.6-0.7c-0.3-0.4-0.4-0.8-0.4-1.2c0-0.3,0.1-0.6,0.2-0.7c0.4-0.5,0.9-1.1,1.4-1.7
		c0.5-0.6,1.1-1.1,1.8-1.6c0.6-0.5,1.3-0.9,2-1.2s1.5-0.4,2.3-0.4c0.6,0,1.1,0.1,1.6,0.2c0.5,0.2,0.9,0.4,1.3,0.6
		c0.3,0.2,0.6,0.5,0.8,0.8c0.2,0.3,0.3,0.6,0.3,0.8c0,0.4-0.1,0.7-0.3,1.1c-0.2,0.3-0.4,0.7-0.7,1c-0.3,0.3-0.6,0.6-1,0.9
		C320.5,150.3,320.2,150.6,319.8,150.8z"/>
	<path class="st0" d="M104.9,321.2v-1.4l1.8-0.3v-12.3l-1.8-0.3v-1.4h12v3.8h-1.8l-0.2-2.1h-6.2v5.1h6v1.7h-6v5.6h6.3l0.2-2.1h1.8
		v3.7L104.9,321.2L104.9,321.2z"/>
	<path class="st0" d="M137.5,305.5v1.4l-1.8,0.3v14h-2.1l-7.5-12.1H126v10.4l1.8,0.3v1.4h-5.6v-1.4l1.8-0.3v-12.3l-1.8-0.3v-1.4h1.8
		h2.1l7.5,12.1h0.1v-10.4l-1.8-0.3v-1.4h3.9L137.5,305.5L137.5,305.5z"/>
	<path class="st0" d="M154.9,305.5v3.5h-1.8l-0.2-1.8h-3.5v12.3l1.8,0.3v1.4h-5.6v-1.4l1.8-0.3v-12.3h-3.5l-0.2,1.8h-1.8v-3.5H154.9
		z"/>
	<path class="st0" d="M166.2,305.5c1.7,0,3,0.4,3.9,1.1c0.9,0.8,1.4,1.8,1.4,3.2c0,0.8-0.2,1.4-0.6,2s-1,1-1.8,1.4
		c0.9,0.3,1.5,0.7,1.8,1.4c0.4,0.6,0.6,1.4,0.6,2.3v1.3c0,0.5,0.1,0.8,0.2,1.1s0.3,0.4,0.6,0.4l0.5,0.1v1.4h-1.1
		c-0.8,0-1.4-0.3-1.8-0.9c-0.3-0.6-0.5-1.3-0.5-2.1V317c0-0.9-0.2-1.5-0.7-2.1s-1.2-0.8-2-0.8h-3.4v5.3l1.8,0.3v1.4h-5.6v-1.4
		l1.8-0.3v-12.3l-1.8-0.3v-1.4h1.8L166.2,305.5L166.2,305.5z M163.2,312.5h2.8c1.2,0,2-0.2,2.6-0.7s0.8-1.1,0.8-2
		c0-0.8-0.3-1.5-0.8-2s-1.3-0.7-2.4-0.7h-3L163.2,312.5L163.2,312.5z"/>
	<path class="st0" d="M177.6,321.2v-1.4l1.8-0.3v-12.3l-1.8-0.3v-1.4h12v3.8h-1.8l-0.2-2.1h-6.2v5.1h6v1.7h-6v5.6h6.3l0.2-2.1h1.8
		v3.7L177.6,321.2L177.6,321.2z"/>
	<line class="st2" x1="200" y1="294" x2="96" y2="294"/>
	<line class="st2" x1="200" y1="332.5" x2="96" y2="332.5"/>
	<g>
		<polygon class="st1" points="78,354 96,354 96,371 		"/>
	</g>
	<g>
		<polygon class="st1" points="422,354 404,354 404,371 		"/>
	</g>
</g>
</svg>
