<?xml version="1.0" encoding="utf-8"?>
<!-- Generator: Adobe Illustrator 22.1.0, SVG Export Plug-In . SVG Version: 6.00 Build 0)  -->
<svg version="1.1" id="Calque_1" xmlns="http://www.w3.org/2000/svg" xmlns:xlink="http://www.w3.org/1999/xlink" x="0px" y="0px"
	 width="175px" height="150px" viewBox="0 0 175 150" style="enable-background:new 0 0 175 150;" xml:space="preserve">
<style type="text/css">
	.st0{fill:#FFFFFF;}
</style>
<path class="st0" d="M33.7,89.1l24.6-45.6l11.8-5.7V36C70.2,18.3,55.8,4,38.1,4C20.4,4,6,18.3,6,36v109.9h42.3V97L33.7,89.1z"/>
<polygon class="st0" points="53.3,89.9 45.6,85.7 64.7,50.2 107.6,29.4 150.5,50.2 169,85.7 161.2,89.8 144,56.9 107.6,39.1 
	71.2,56.9 "/>
<polygon class="st0" points="108.7,119.3 123,104.9 94.4,104.9 "/>
<polygon class="st0" points="129.3,139.8 129.3,111.1 114.9,125.5 "/>
<polygon class="st0" points="108.7,131.7 94.4,146 123,146 "/>
<polygon class="st0" points="88.1,139.8 102.5,125.5 88.1,111.1 "/>
<path class="st0" d="M137.6,63.5l-30-14.6l-30,14.6l-20.4,37.9V146h22.2V96.1h58.7V146h20.1v-44.4L137.6,63.5z M108,86.1
	c-6.1,0-11.1-5-11.1-11.1s5-11.1,11.1-11.1c6.1,0,11.1,5,11.1,11.1S114.1,86.1,108,86.1z"/>
</svg>
