<?xml version="1.0" encoding="utf-8"?>
<!-- Generator: Adobe Illustrator 22.1.0, SVG Export Plug-In . SVG Version: 6.00 Build 0)  -->
<svg version="1.1" id="Calque_1" xmlns="http://www.w3.org/2000/svg" xmlns:xlink="http://www.w3.org/1999/xlink" x="0px" y="0px"
	 width="175px" height="150px" viewBox="0 0 175 150" style="enable-background:new 0 0 175 150;" xml:space="preserve">
<style type="text/css">
	.st0{fill:#FFFFFF;}
</style>
<g>
	<path class="st0" d="M40.5,76.1c-19.9,0-36,16.1-36,36c0,19.9,16.1,36,36,36s36-16.1,36-36C76.6,92.2,60.4,76.1,40.5,76.1z
		 M40.5,127.9c-8.7,0-15.8-7.1-15.8-15.8c0-8.7,7.1-15.8,15.8-15.8s15.8,7.1,15.8,15.8C56.4,120.9,49.3,127.9,40.5,127.9z"/>
	<path class="st0" d="M149.1,91.8V69.1c0-9.6-7.8-17.3-17.3-17.3h-11.3V36.5c0-1.5-1.2-2.6-2.6-2.6s-2.6,1.2-2.6,2.6v15.2H96.1
		L78.9,7.1h12.5c1.5,0,2.6-1.2,2.6-2.6s-1.2-2.6-2.6-2.6H42c-9.6,0-17.3,7.8-17.3,17.3v18C16,38.1,9.2,45.5,9.2,54.4V68
		c-2.5,1.7-4.8,3.7-7,5.9c-1,1-1,2.7,0,3.7c1,1,2.7,1,3.7,0c2.2-2.2,4.6-4.2,7.1-5.9c0.1-0.1,0.3-0.2,0.4-0.3
		c7.9-5.3,17.3-8.1,27-8.1c26.9,0,48.9,21.9,48.9,48.9v2.6h30.3c-0.2,1.3-0.3,2.6-0.3,4c0,14.9,12.1,27,27,27c14.9,0,27-12.1,27-27
		C173.5,104.7,162.8,93.2,149.1,91.8z M90.4,51.7H71.7c-1.1-7.5-7.1-13.4-14.5-14.5V7.1h16.2L90.4,51.7z M42,7.1h9.9V37H29.9V19.2
		C29.9,12.5,35.4,7.1,42,7.1z M146.5,130c-6.2,0-11.2-5-11.2-11.2c0-6.2,5-11.2,11.2-11.2c6.2,0,11.2,5,11.2,11.2
		C157.7,124.9,152.7,130,146.5,130z"/>
</g>
</svg>
